<svg xmlns="http://www.w3.org/2000/svg" width="48" height="48" viewBox="0 0 48 48" fill="none">
    <path
        d="M4 40.822C4 40.2092 4.12323 39.6667 4.36969 39.1942C4.6234 38.7218 4.9641 38.3563 5.39178 38.098C5.82671 37.8322 6.30514 37.6993 6.82705 37.6993C7.29823 37.6993 7.70779 37.7953 8.05573 37.9872C8.41093 38.1718 8.69363 38.4043 8.90385 38.6848V37.799H10.1543V43.9003H8.90385V42.9923C8.69363 43.2802 8.4073 43.5201 8.04486 43.7121C7.68242 43.904 7.26923 44 6.80531 44C6.29064 44 5.81946 43.8671 5.39178 43.6013C4.9641 43.3282 4.6234 42.9517 4.36969 42.4719C4.12323 41.9846 4 41.4347 4 40.822ZM8.90385 40.8441C8.90385 40.4233 8.81686 40.0579 8.64289 39.7479C8.47617 39.4378 8.25508 39.2016 7.97962 39.0392C7.70416 38.8768 7.40696 38.7956 7.08801 38.7956C6.76906 38.7956 6.47186 38.8768 6.1964 39.0392C5.92095 39.1942 5.69623 39.4267 5.52226 39.7368C5.35554 40.0395 5.27217 40.4012 5.27217 40.822C5.27217 41.2427 5.35554 41.6119 5.52226 41.9293C5.69623 42.2467 5.92095 42.4903 6.1964 42.6601C6.47911 42.8225 6.77631 42.9037 7.08801 42.9037C7.40696 42.9037 7.70416 42.8225 7.97962 42.6601C8.25508 42.4977 8.47617 42.2615 8.64289 41.9514C8.81686 41.634 8.90385 41.2649 8.90385 40.8441Z"
        fill="black" />
    <path
        d="M14.3485 40.8109L16.2839 43.9003H14.8813L13.5873 41.8296L12.3695 43.9003H11.0756L13.0111 40.8995L11.0756 37.799H12.4783L13.7722 39.8697L14.99 37.799H16.2839L14.3485 40.8109Z"
        fill="black" />
    <path
        d="M22.6994 40.7002C22.6994 40.929 22.6849 41.1357 22.6559 41.3203H18.0783C18.1145 41.8075 18.2921 42.1987 18.6111 42.494C18.93 42.7893 19.3214 42.9369 19.7854 42.9369C20.4523 42.9369 20.9234 42.6527 21.1989 42.0843H22.5363C22.3551 42.6453 22.0253 43.1067 21.5468 43.4685C21.0757 43.8228 20.4885 44 19.7854 44C19.2127 44 18.698 43.8708 18.2414 43.6124C17.7919 43.3466 17.4367 42.9775 17.1758 42.5051C16.9221 42.0252 16.7952 41.4716 16.7952 40.8441C16.7952 40.2166 16.9185 39.6667 17.1649 39.1942C17.4186 38.7144 17.7702 38.3453 18.2196 38.0869C18.6763 37.8285 19.1982 37.6993 19.7854 37.6993C20.3508 37.6993 20.8546 37.8248 21.2968 38.0758C21.7389 38.3268 22.0833 38.6812 22.3297 39.1388C22.5762 39.5892 22.6994 40.1096 22.6994 40.7002ZM21.4055 40.3015C21.3982 39.8365 21.2351 39.4637 20.9162 39.1831C20.5972 38.9026 20.2022 38.7624 19.731 38.7624C19.3033 38.7624 18.9373 38.9026 18.6328 39.1831C18.3284 39.4563 18.1471 39.8291 18.0891 40.3015H21.4055Z"
        fill="black" />
    <path d="M25.1588 35.7062V43.9003H23.9193V35.7062H25.1588Z" fill="black" />
    <path
        d="M28.9609 44C28.4897 44 28.0657 43.9151 27.6887 43.7453C27.319 43.5681 27.0254 43.3319 26.808 43.0366C26.5905 42.7339 26.4745 42.398 26.46 42.0289H27.7431C27.7648 42.2873 27.8844 42.5051 28.1019 42.6823C28.3266 42.852 28.6057 42.9369 28.9391 42.9369C29.2871 42.9369 29.5553 42.8705 29.7438 42.7376C29.9395 42.5974 30.0373 42.4202 30.0373 42.2061C30.0373 41.9773 29.9286 41.8075 29.7111 41.6967C29.5009 41.586 29.1639 41.4642 28.6999 41.3313C28.2505 41.2058 27.8844 41.084 27.6017 40.9659C27.319 40.8478 27.0726 40.6669 26.8624 40.4233C26.6594 40.1797 26.5579 39.8586 26.5579 39.46C26.5579 39.1352 26.6521 38.8399 26.8406 38.5741C27.0291 38.301 27.2973 38.0869 27.6452 37.9319C28.0004 37.7768 28.4064 37.6993 28.863 37.6993C29.5444 37.6993 30.0917 37.8765 30.5049 38.2308C30.9253 38.5778 31.15 39.0539 31.179 39.6593H29.9395C29.9177 39.3861 29.809 39.1684 29.6133 39.006C29.4176 38.8436 29.153 38.7624 28.8195 38.7624C28.4933 38.7624 28.2433 38.8251 28.0693 38.9506C27.8953 39.0761 27.8083 39.2422 27.8083 39.4489C27.8083 39.6113 27.8663 39.7479 27.9823 39.8586C28.0983 39.9693 28.2396 40.0579 28.4064 40.1244C28.5731 40.1834 28.8195 40.2609 29.1457 40.3569C29.5807 40.475 29.9359 40.5968 30.2113 40.7223C30.494 40.8404 30.7369 41.0176 30.9398 41.2538C31.1428 41.49 31.2479 41.8038 31.2552 42.195C31.2552 42.542 31.1609 42.852 30.9725 43.1252C30.784 43.3983 30.5158 43.6124 30.1678 43.7674C29.8271 43.9225 29.4248 44 28.9609 44Z"
        fill="black" />
    <path
        d="M33.0947 43.9778C32.87 43.9778 32.6815 43.9003 32.5293 43.7453C32.3771 43.5903 32.3009 43.3983 32.3009 43.1695C32.3009 42.9406 32.3771 42.7487 32.5293 42.5937C32.6815 42.4386 32.87 42.3611 33.0947 42.3611C33.3122 42.3611 33.497 42.4386 33.6492 42.5937C33.8015 42.7487 33.8776 42.9406 33.8776 43.1695C33.8776 43.3983 33.8015 43.5903 33.6492 43.7453C33.497 43.9003 33.3122 43.9778 33.0947 43.9778Z"
        fill="black" />
    <path
        d="M34.8041 40.822C34.8041 40.2092 34.9273 39.6667 35.1738 39.1942C35.4275 38.7218 35.7682 38.3563 36.1959 38.098C36.6308 37.8322 37.1092 37.6993 37.6311 37.6993C38.1023 37.6993 38.5119 37.7953 38.8598 37.9872C39.215 38.1718 39.4977 38.4043 39.7079 38.6848V37.799H40.9584V43.9003H39.7079V42.9923C39.4977 43.2802 39.2114 43.5201 38.849 43.7121C38.4865 43.904 38.0733 44 37.6094 44C37.0947 44 36.6236 43.8671 36.1959 43.6013C35.7682 43.3282 35.4275 42.9517 35.1738 42.4719C34.9273 41.9846 34.8041 41.4347 34.8041 40.822ZM39.7079 40.8441C39.7079 40.4233 39.621 40.0579 39.447 39.7479C39.2803 39.4378 39.0592 39.2016 38.7837 39.0392C38.5083 38.8768 38.2111 38.7956 37.8921 38.7956C37.5732 38.7956 37.276 38.8768 37.0005 39.0392C36.725 39.1942 36.5003 39.4267 36.3264 39.7368C36.1596 40.0395 36.0763 40.4012 36.0763 40.822C36.0763 41.2427 36.1596 41.6119 36.3264 41.9293C36.5003 42.2467 36.725 42.4903 37.0005 42.6601C37.2832 42.8225 37.5804 42.9037 37.8921 42.9037C38.2111 42.9037 38.5083 42.8225 38.7837 42.6601C39.0592 42.4977 39.2803 42.2615 39.447 41.9514C39.621 41.634 39.7079 41.2649 39.7079 40.8441Z"
        fill="black" />
    <path
        d="M43.2171 36.9906C42.9924 36.9906 42.8039 36.9131 42.6517 36.7581C42.4995 36.6031 42.4234 36.4112 42.4234 36.1823C42.4234 35.9535 42.4995 35.7615 42.6517 35.6065C42.8039 35.4515 42.9924 35.374 43.2171 35.374C43.4346 35.374 43.6194 35.4515 43.7717 35.6065C43.9239 35.7615 44 35.9535 44 36.1823C44 36.4112 43.9239 36.6031 43.7717 36.7581C43.6194 36.9131 43.4346 36.9906 43.2171 36.9906ZM43.826 37.799V43.9003H42.5865V37.799H43.826Z"
        fill="black" />
    <path fill-rule="evenodd" clip-rule="evenodd"
        d="M26.9495 26.1284L31.5801 33.5285H35.9894L29.1109 22.5361L26.9495 26.1284ZM36.3598 4H31.9505L27.5421 11.3497L29.7988 14.9385L36.3598 4ZM17.4704 4H13.0612L22.4265 18.872L13.0612 33.5285H17.4704L26.8357 18.872L17.4704 4Z"
        fill="black" />
</svg>